<?xml version="1.0" encoding="UTF-8" standalone="no"?>
<!DOCTYPE svg PUBLIC "-//W3C//DTD SVG 1.1//EN" "http://www.w3.org/Graphics/SVG/1.1/DTD/svg11.dtd">
<svg width="100%" height="100%" viewBox="0 0 80 80" version="1.1" xmlns="http://www.w3.org/2000/svg" xmlns:xlink="http://www.w3.org/1999/xlink" xml:space="preserve" xmlns:serif="http://www.serif.com/" style="fill-rule:evenodd;clip-rule:evenodd;stroke-linecap:round;stroke-linejoin:round;stroke-miterlimit:1.5;">
    <g transform="matrix(1,0,0,1,-3.55271e-14,1)">
        <g id="Q-list">
            <g transform="matrix(2.35484,0,0,2.20291,-44.7742,-61.2326)">
                <path d="M51.5,31.55C51.5,30.695 50.85,30 50.05,30L21.95,30C21.15,30 20.5,30.695 20.5,31.55L20.5,59.45C20.5,60.305 21.15,61 21.95,61L50.05,61C50.85,61 51.5,60.305 51.5,59.45L51.5,31.55Z" style="fill:none;stroke:white;stroke-width:2.19px;"/>
            </g>
            <g transform="matrix(2.35484,0,0,2.35484,-44.7742,-65.7903)">
                <path d="M24,34L26,36L24,38" style="fill:none;stroke:white;stroke-width:2.12px;"/>
            </g>
            <g transform="matrix(2.35484,0,0,2.35484,-44.7742,-46.9516)">
                <path d="M24,34L26,36L24,38" style="fill:none;stroke:white;stroke-width:2.12px;"/>
            </g>
            <g transform="matrix(2.35484,0,0,2.35484,-44.7742,-25.7581)">
                <path d="M24,34L26,36L24,38" style="fill:none;stroke:white;stroke-width:2.12px;"/>
            </g>
            <g transform="matrix(2.35484,0,0,2.35484,-44.7742,-65.7903)">
                <path d="M30,36L47,36" style="fill:none;stroke:white;stroke-width:2.12px;"/>
            </g>
            <g transform="matrix(2.35484,0,0,2.35484,-44.7742,-46.9516)">
                <path d="M30,36L47,36" style="fill:none;stroke:white;stroke-width:2.12px;"/>
            </g>
            <g transform="matrix(2.35484,0,0,2.35484,-44.7742,-25.7581)">
                <path d="M30,36L47,36" style="fill:none;stroke:white;stroke-width:2.12px;"/>
            </g>
        </g>
    </g>
</svg>
