<?xml version="1.0" encoding="UTF-8" standalone="no"?>
<!DOCTYPE svg PUBLIC "-//W3C//DTD SVG 1.1//EN" "http://www.w3.org/Graphics/SVG/1.1/DTD/svg11.dtd">
<svg width="100%" height="100%" viewBox="0 0 80 80" version="1.1" xmlns="http://www.w3.org/2000/svg" xmlns:xlink="http://www.w3.org/1999/xlink" xml:space="preserve" xmlns:serif="http://www.serif.com/" style="fill-rule:evenodd;clip-rule:evenodd;stroke-linejoin:round;stroke-miterlimit:2;">
    <g transform="matrix(2.67308,0,0,2.67308,-53.0384,-93.6538)">
        <g id="Music">
            <path id="Music1" serif:id="Music" d="M30,59C30,61.208 28.208,63 26,63C23.792,63 22,61.208 22,59C22,56.792 23.792,55 26,55C26.728,55 27.411,55.195 28,55.536L28,46L28,43L28,42C28,41.547 28.305,41.15 28.742,41.034L43.742,37.034C44.043,36.954 44.363,37.018 44.609,37.207C44.856,37.396 45,37.689 45,38L45,55C45,57.208 43.208,59 41,59C38.792,59 37,57.208 37,55C37,52.792 38.792,51 41,51C41.728,51 42.412,51.195 43,51.536L43,43.302L30,46.768L30,59Z" style="fill:white;"/>
        </g>
    </g>
</svg>
