<?xml version="1.0" encoding="UTF-8" standalone="no"?>
<!DOCTYPE svg PUBLIC "-//W3C//DTD SVG 1.1//EN" "http://www.w3.org/Graphics/SVG/1.1/DTD/svg11.dtd">
<svg width="100%" height="100%" viewBox="0 0 80 80" version="1.1" xmlns="http://www.w3.org/2000/svg" xmlns:xlink="http://www.w3.org/1999/xlink" xml:space="preserve" xmlns:serif="http://www.serif.com/" style="fill-rule:evenodd;clip-rule:evenodd;stroke-linejoin:round;stroke-miterlimit:2;">
    <g transform="matrix(2.22798,0,0,2.22798,-33.2049,-61.1449)">
        <g id="Color">
            <g transform="matrix(-0.5,0.866025,-0.866025,-0.5,89.7702,41.1712)">
                <path d="M32.602,58.231C30.732,59.95 28.238,61 25.5,61C19.705,61 15,56.295 15,50.5C15,45.552 18.43,41.399 23.04,40.29C23.658,43.059 25.388,45.569 28.036,47.098C28.717,47.491 29.424,47.8 30.145,48.026C29.36,50.688 29.625,53.654 31.121,56.245C31.544,56.979 32.043,57.642 32.602,58.231Z" style="fill:rgb(0,31,255);"/>
            </g>
            <path d="M32.602,58.231C30.732,59.95 28.238,61 25.5,61C19.705,61 15,56.295 15,50.5C15,45.552 18.43,41.399 23.04,40.29C23.658,43.059 25.388,45.569 28.036,47.098C28.717,47.491 29.424,47.8 30.145,48.026C29.36,50.688 29.625,53.654 31.121,56.245C31.544,56.979 32.043,57.642 32.602,58.231Z" style="fill:rgb(0,255,30);"/>
            <path d="M30.145,48.026C29.424,47.8 28.717,47.491 28.036,47.098C25.388,45.569 23.658,43.059 23.04,40.29C23.829,40.101 24.653,40 25.5,40C28.492,40 31.193,41.254 33.106,43.264C31.679,44.575 30.674,46.231 30.145,48.026Z" style="fill:rgb(0,255,205);"/>
            <g transform="matrix(-0.5,-0.866025,0.866025,-0.5,9.22982,98.3288)">
                <path d="M35.749,48.21C35.913,48.947 36,49.713 36,50.5C36,53.557 34.691,56.311 32.602,58.231C32.043,57.642 31.544,56.979 31.121,56.245C29.625,53.654 29.36,50.688 30.145,48.026C31.993,48.606 33.93,48.649 35.749,48.21Z" style="fill:rgb(255,0,207);"/>
            </g>
            <g transform="matrix(-0.5,-0.866025,0.866025,-0.5,9.22982,98.3288)">
                <path d="M33.106,43.264C34.396,44.62 35.328,46.319 35.749,48.21C33.93,48.649 31.993,48.606 30.145,48.026C30.674,46.231 31.679,44.575 33.106,43.264Z" style="fill:white;"/>
            </g>
            <g transform="matrix(-0.5,-0.866025,0.866025,-0.5,9.22982,98.3288)">
                <path d="M23.04,40.29C23.829,40.101 24.653,40 25.5,40C28.492,40 31.193,41.254 33.106,43.264C31.679,44.575 30.674,46.231 30.145,48.026C29.424,47.8 28.717,47.491 28.036,47.098C25.388,45.569 23.658,43.059 23.04,40.29Z" style="fill:rgb(255,214,0);"/>
            </g>
            <g transform="matrix(-0.5,-0.866025,0.866025,-0.5,9.22982,98.3288)">
                <path d="M32.602,58.231C30.732,59.95 28.238,61 25.5,61C19.705,61 15,56.295 15,50.5C15,45.552 18.43,41.399 23.04,40.29C23.658,43.059 25.388,45.569 28.036,47.098C28.717,47.491 29.424,47.8 30.145,48.026C29.36,50.688 29.625,53.654 31.121,56.245C31.544,56.979 32.043,57.642 32.602,58.231Z" style="fill:rgb(255,0,5);"/>
            </g>
        </g>
    </g>
</svg>
