<?xml version="1.0" encoding="UTF-8" standalone="no"?>
<!DOCTYPE svg PUBLIC "-//W3C//DTD SVG 1.1//EN" "http://www.w3.org/Graphics/SVG/1.1/DTD/svg11.dtd">
<svg width="100%" height="100%" viewBox="0 0 80 80" version="1.1" xmlns="http://www.w3.org/2000/svg" xmlns:xlink="http://www.w3.org/1999/xlink" xml:space="preserve" xmlns:serif="http://www.serif.com/" style="fill-rule:evenodd;clip-rule:evenodd;stroke-linejoin:round;stroke-miterlimit:2;">
    <g transform="matrix(2.28571,0,0,2.28571,-42.2857,-63.9999)">
        <g id="Movement">
            <g transform="matrix(4.98403e-17,-0.813954,0.813954,4.98403e-17,-1.03489,74.8023)">
                <path d="M37.329,24.505L41.829,28.505C42.654,29.239 42.728,30.504 41.995,31.329C41.261,32.154 39.996,32.228 39.171,31.495C39.171,31.495 38.633,31.016 38,30.454L38,38C38,39.104 37.104,40 36,40C34.896,40 34,39.104 34,38L34,30.454L32.829,31.495C32.003,32.229 30.739,32.154 30.005,31.329C29.271,30.503 29.346,29.239 30.171,28.505L34.671,24.505C35.267,23.976 36.109,23.856 36.819,24.175C37.005,24.259 37.176,24.369 37.329,24.505Z" style="fill:white;"/>
            </g>
            <g transform="matrix(-0.813954,-9.96806e-17,9.96806e-17,-0.813954,65.3023,82.5349)">
                <path d="M37.329,24.505L41.829,28.505C42.654,29.239 42.728,30.504 41.995,31.329C41.261,32.154 39.996,32.228 39.171,31.495C39.171,31.495 38.633,31.016 38,30.454L38,38C38,39.104 37.104,40 36,40C34.896,40 34,39.104 34,38L34,30.454L32.829,31.495C32.003,32.229 30.739,32.154 30.005,31.329C29.271,30.503 29.346,29.239 30.171,28.505L34.671,24.505C35.267,23.976 36.109,23.856 36.819,24.175C37.005,24.259 37.176,24.369 37.329,24.505Z" style="fill:white;"/>
            </g>
            <g transform="matrix(-1.49521e-16,0.813954,-0.813954,-1.49521e-16,73.0349,16.1977)">
                <path d="M37.329,24.505L41.829,28.505C42.654,29.239 42.728,30.504 41.995,31.329C41.261,32.154 39.996,32.228 39.171,31.495C39.171,31.495 38.633,31.016 38,30.454L38,38C38,39.104 37.104,40 36,40C34.896,40 34,39.104 34,38L34,30.454L32.829,31.495C32.003,32.229 30.739,32.154 30.005,31.329C29.271,30.503 29.346,29.239 30.171,28.505L34.671,24.505C35.267,23.976 36.109,23.856 36.819,24.175C37.005,24.259 37.176,24.369 37.329,24.505Z" style="fill:white;"/>
            </g>
            <g transform="matrix(0.813954,0,0,0.813954,6.69767,8.46511)">
                <path d="M37.329,24.505L41.829,28.505C42.654,29.239 42.728,30.504 41.995,31.329C41.261,32.154 39.996,32.228 39.171,31.495C39.171,31.495 38.633,31.016 38,30.454L38,38C38,39.104 37.104,40 36,40C34.896,40 34,39.104 34,38L34,30.454L32.829,31.495C32.003,32.229 30.739,32.154 30.005,31.329C29.271,30.503 29.346,29.239 30.171,28.505L34.671,24.505C35.267,23.976 36.109,23.856 36.819,24.175C37.005,24.259 37.176,24.369 37.329,24.505Z" style="fill:white;"/>
            </g>
            <g transform="matrix(0.813954,0,0,0.813954,6.69767,8.46511)">
                <circle cx="36" cy="45.5" r="3.5" style="fill:white;"/>
            </g>
        </g>
    </g>
</svg>
