<?xml version="1.0" encoding="UTF-8" standalone="no"?>
<!DOCTYPE svg PUBLIC "-//W3C//DTD SVG 1.1//EN" "http://www.w3.org/Graphics/SVG/1.1/DTD/svg11.dtd">
<svg width="100%" height="100%" viewBox="0 0 80 80" version="1.1" xmlns="http://www.w3.org/2000/svg" xmlns:xlink="http://www.w3.org/1999/xlink" xml:space="preserve" xmlns:serif="http://www.serif.com/" style="fill-rule:evenodd;clip-rule:evenodd;stroke-linejoin:round;stroke-miterlimit:2;">
    <g transform="matrix(2.39982,0,0,2.39982,-40.9939,-63.6653)">
        <g id="Video">
            <g transform="matrix(1,0,0,0.5625,0,23)">
                <path d="M47,40L47,54.667C47,58.591 45.208,61.778 43,61.778L25,61.778C22.792,61.778 21,58.591 21,54.667L21,40C21,39.018 21.448,38.222 22,38.222L46,38.222C46.552,38.222 47,39.018 47,40ZM45,41.778L23,41.778L23,54.667C23,56.629 23.896,58.222 25,58.222L43,58.222C44.104,58.222 45,56.629 45,54.667L45,41.778Z" style="fill:white;"/>
            </g>
            <rect x="22" y="41" width="24" height="4.5" style="fill:none;"/>
            <clipPath id="_clip1">
                <rect x="22" y="41" width="24" height="4.5"/>
            </clipPath>
            <g clip-path="url(#_clip1)">
                <path d="M22.747,46.164C22.381,46.577 21.748,46.614 21.336,46.247C20.923,45.881 20.886,45.248 21.253,44.836L25.253,40.336C25.442,40.122 25.714,40 26,40L32,40C32.394,40 32.751,40.231 32.912,40.59C33.074,40.95 33.009,41.37 32.747,41.664L30.227,44.5L33.551,44.5L37.253,40.336C37.442,40.122 37.714,40 38,40L44,40C44.394,40 44.751,40.231 44.912,40.59C45.074,40.95 45.009,41.37 44.747,41.664L40.747,46.164C40.381,46.577 39.748,46.614 39.336,46.247C38.923,45.881 38.886,45.248 39.253,44.836L41.773,42L38.449,42L34.747,46.164C34.558,46.378 34.286,46.5 34,46.5L28,46.5C27.606,46.5 27.249,46.269 27.088,45.91C26.926,45.55 26.991,45.13 27.253,44.836L29.773,42L26.449,42L22.747,46.164Z" style="fill:white;"/>
            </g>
            <path d="M47,41L47,45.5C47,46.052 46.552,46.5 46,46.5L22,46.5C21.448,46.5 21,46.052 21,45.5L21,41C21,40.448 21.448,40 22,40L46,40C46.552,40 47,40.448 47,41ZM45,42L23,42C23,42 23,44.5 23,44.5L45,44.5L45,42Z" style="fill:white;"/>
            <g transform="matrix(0.965926,-0.258819,0.258819,0.965926,-11.0354,1.27356)">
                <path d="M46,42.25C46,41.56 45.44,41 44.75,41L23.25,41C22.56,41 22,41.56 22,42.25L22,45.5L46,45.5L46,42.25Z" style="fill:none;"/>
                <clipPath id="_clip2">
                    <path d="M46,42.25C46,41.56 45.44,41 44.75,41L23.25,41C22.56,41 22,41.56 22,42.25L22,45.5L46,45.5L46,42.25Z"/>
                </clipPath>
                <g clip-path="url(#_clip2)">
                    <path d="M22.747,46.164C22.381,46.577 21.748,46.614 21.336,46.247C20.923,45.881 20.886,45.248 21.253,44.836L25.253,40.336C25.442,40.122 25.714,40 26,40L32,40C32.394,40 32.751,40.231 32.912,40.59C33.074,40.95 33.009,41.37 32.747,41.664L30.227,44.5L33.551,44.5L37.253,40.336C37.442,40.122 37.714,40 38,40L44,40C44.394,40 44.751,40.231 44.912,40.59C45.074,40.95 45.009,41.37 44.747,41.664L40.747,46.164C40.381,46.577 39.748,46.614 39.336,46.247C38.923,45.881 38.886,45.248 39.253,44.836L41.773,42L38.449,42L34.747,46.164C34.558,46.378 34.286,46.5 34,46.5L28,46.5C27.606,46.5 27.249,46.269 27.088,45.91C26.926,45.55 26.991,45.13 27.253,44.836L29.773,42L26.449,42L22.747,46.164Z" style="fill:white;"/>
                </g>
            </g>
            <g transform="matrix(0.965926,-0.258819,0.258819,0.965926,-11.0354,1.27356)">
                <path d="M47,44L47,45.5C47,46.052 46.552,46.5 46,46.5L22,46.5C21.448,46.5 21,46.052 21,45.5L21,44C21,41.792 22.792,40 25,40L43,40C45.208,40 47,41.792 47,44ZM45,44C45,42.896 44.104,42 43,42L25,42C23.896,42 23,42.896 23,44C23,44 23,44.5 23,44.5C23,44.5 45,44.5 45,44.5L45,44Z" style="fill:white;"/>
            </g>
            <g transform="matrix(3.67394e-17,0.6,-0.685714,4.19879e-17,69.9143,30.725)">
                <path d="M35.413,47.227L40.413,54.227C40.734,54.677 40.751,55.243 40.458,55.707C40.164,56.171 39.606,56.458 39,56.458L29,56.458C28.394,56.458 27.836,56.171 27.542,55.707C27.249,55.243 27.266,54.677 27.587,54.227L32.587,47.227C32.891,46.801 33.425,46.542 34,46.542C34.575,46.542 35.109,46.801 35.413,47.227ZM34,50.752L32.007,53.542L35.993,53.542L34,50.752Z" style="fill:white;"/>
            </g>
        </g>
    </g>
</svg>
